<svg width="149" height="149" viewBox="0 0 149 149" fill="none" xmlns="http://www.w3.org/2000/svg">
<path d="M7.40344 12.6883H141.608V102.926H7.40344V12.6883Z" fill="url(#paint0_linear_36_454)"/>
<path d="M138.861 15.4355V100.191H10.139V15.4355H138.861ZM144.344 9.95273H4.65625V105.674H144.344V9.95273Z" fill="url(#paint1_linear_36_454)"/>
<path d="M115.126 92.9504C113.671 90.308 115.522 87.619 118.688 84.2898C123.705 79.0049 129.164 66.7473 124.089 54.3035C124.124 54.2337 123.088 52.1384 123.123 52.0685L121.039 51.9638C120.376 51.8706 97.4553 51.8241 74.5116 51.8241C51.568 51.8241 28.6476 51.8706 27.9841 51.9638C27.9841 51.9638 24.8993 54.2337 24.9226 54.3035C19.8589 66.7473 25.3067 78.9933 30.3238 84.2898C33.4784 87.619 35.3293 90.308 33.8859 92.9504C32.4773 95.523 28.2867 95.8955 28.2867 95.8955C28.2867 95.8955 29.2529 98.5262 31.581 99.9464C33.7345 101.262 36.3886 101.564 38.2162 101.611C38.2162 101.611 45.3752 111.517 64.0933 111.517H84.93C103.648 111.517 110.807 101.611 110.807 101.611C112.635 101.564 115.289 101.262 117.442 99.9464C119.77 98.5262 120.737 95.8955 120.737 95.8955C120.737 95.8955 116.534 95.523 115.126 92.9504Z" fill="#543930"/>
<path d="M74.4883 111.506V100.517L107.746 97.886L110.772 101.611C110.772 101.611 103.613 111.517 84.8951 111.517L74.4883 111.506Z" fill="url(#paint2_radial_36_454)"/>
<path d="M110.702 96.8034C105.72 89.237 116.767 86.4084 116.767 86.4084L116.779 86.42C114.858 88.8063 113.985 90.89 115.114 92.9504C116.523 95.523 120.713 95.8955 120.713 95.8955C120.713 95.8955 114.998 100.971 110.702 96.8034Z" fill="url(#paint3_radial_36_454)"/>
<path d="M124.112 54.3035C129.06 66.3516 123.856 78.7605 118.979 83.9988C118.315 84.7205 115.475 87.5026 114.823 89.7259C114.823 89.7259 103.718 74.2323 100.4 65.1293C99.7369 63.2901 99.1199 61.4043 99.0385 59.4487C98.9803 57.982 99.2014 56.2359 100.051 54.9903C101.087 53.4654 123.519 53.0114 123.519 53.0114C123.519 53.0231 124.112 54.3035 124.112 54.3035Z" fill="url(#paint4_radial_36_454)"/>
<path d="M24.9109 54.3035C19.9753 66.3516 25.1787 78.7605 30.0445 83.9871C30.7196 84.7088 33.5483 87.4909 34.2002 89.7143C34.2002 89.7143 45.3053 74.2206 48.6229 65.1176C49.298 63.2784 49.9034 61.3926 49.9848 59.437C50.043 57.9703 49.8219 56.2242 48.9721 54.9787C47.9361 53.4537 46.7255 53.8612 44.9677 53.8612C41.6152 53.8612 26.9364 52.9998 25.7956 52.9998C25.8073 53.023 24.9109 54.3035 24.9109 54.3035Z" fill="url(#paint5_radial_36_454)"/>
<path d="M74.5349 111.506V100.517L41.2777 97.886L38.2511 101.611C38.2511 101.611 45.4101 111.517 64.1282 111.517L74.5349 111.506Z" fill="url(#paint6_radial_36_454)"/>
<path d="M38.3209 96.8034C43.3031 89.237 32.2562 86.4084 32.2562 86.4084L32.2445 86.42C34.1652 88.8063 35.0383 90.89 33.9091 92.9504C32.5006 95.523 28.31 95.8955 28.31 95.8955C28.31 95.8955 34.0255 100.971 38.3209 96.8034Z" fill="url(#paint7_radial_36_454)"/>
<path d="M133.285 140.561C133.285 122.553 103.788 113.135 74.663 113.135H74.5C45.2355 113.17 15.7148 121.656 15.7148 140.561V144.344H133.285V140.561Z" fill="url(#paint8_linear_36_454)"/>
<path d="M74.5 107.478H63.9303V119.095L74.4767 121.866L85.0697 119.095V107.478H74.5Z" fill="#E59600"/>
<path d="M13.9688 140.561V144.344H52.2548L53.803 112.867C32.035 116.08 13.9688 124.729 13.9688 140.561Z" fill="url(#paint9_linear_36_454)"/>
<path d="M95.197 112.867L96.7336 144.344H135.031V140.561C135.031 124.729 116.965 116.08 95.197 112.867Z" fill="url(#paint10_linear_36_454)"/>
<path d="M62.8943 107.233L74.5233 122.157L55.6189 129.886L52.8135 112.961L62.8943 107.233Z" fill="#66C0E8"/>
<path d="M86.1057 107.233L74.4767 122.157L93.3811 129.886L96.1864 112.961L86.1057 107.233Z" fill="#66C0E8"/>
<path d="M56.8994 110.586C56.8994 110.586 55.5723 113.752 54.6411 117.57C52.7902 125.16 52.6738 135.963 52.6738 135.963C52.6738 135.963 44.6534 133.239 42.1507 126.592C39.194 118.734 44.1878 114.416 44.1878 114.416C44.1878 114.416 45.2355 113.973 49.6356 111.552C54.0358 109.131 56.8994 110.586 56.8994 110.586ZM92.1006 110.586C92.1006 110.586 93.4277 113.752 94.3589 117.57C96.2098 125.16 96.3262 135.963 96.3262 135.963C96.3262 135.963 104.347 133.239 106.849 126.592C109.806 118.734 104.812 114.416 104.812 114.416C104.812 114.416 103.765 113.973 99.3644 111.552C94.9642 109.131 92.1006 110.586 92.1006 110.586Z" fill="#AF5214"/>
<path d="M106.069 58.7037H42.4534C35.597 58.7037 29.9863 64.687 29.9863 71.9856C29.9863 79.2843 35.597 85.2676 42.4534 85.2676H106.069C112.926 85.2676 118.536 79.2843 118.536 71.9856C118.536 64.687 112.926 58.7037 106.069 58.7037Z" fill="#E59600"/>
<path d="M74.2555 12.8862C54.0008 12.8862 35.2361 34.5494 35.2361 65.7346C35.2361 96.7452 54.5712 112.076 74.2555 112.076C93.9398 112.076 113.275 96.7336 113.275 65.723C113.275 34.5494 94.5218 12.8862 74.2555 12.8862Z" fill="#FFCA28"/>
<path d="M55.8517 74.3952C59.0212 74.3952 61.5906 71.7373 61.5906 68.4585C61.5906 65.1798 59.0212 62.5218 55.8517 62.5218C52.6823 62.5218 50.1129 65.1798 50.1129 68.4585C50.1129 71.7373 52.6823 74.3952 55.8517 74.3952Z" fill="#404040"/>
<path d="M92.1123 74.3952C95.2818 74.3952 97.8511 71.7373 97.8511 68.4585C97.8511 65.1798 95.2818 62.5218 92.1123 62.5218C88.9428 62.5218 86.3735 65.1798 86.3735 68.4585C86.3735 71.7373 88.9428 74.3952 92.1123 74.3952Z" fill="#404040"/>
<path d="M64.4541 57.9936C63.3715 56.5618 60.8805 54.4898 56.038 54.4898C51.1955 54.4898 48.6927 56.5734 47.6218 57.9936C47.1445 58.6222 47.2609 59.3556 47.5985 59.7979C47.9012 60.2053 48.8091 60.5895 49.8102 60.2519C50.8113 59.9143 52.7669 58.9016 56.038 58.8783C59.309 58.9016 61.2646 59.9143 62.2657 60.2519C63.2668 60.5895 64.1748 60.217 64.4774 59.7979C64.8033 59.3556 64.9314 58.6222 64.4541 57.9936ZM100.528 57.9936C99.4458 56.5618 96.9548 54.4898 92.1123 54.4898C87.2698 54.4898 84.767 56.5734 83.6961 57.9936C83.2188 58.6222 83.3352 59.3556 83.6728 59.7979C83.9755 60.2053 84.8834 60.5895 85.8845 60.2519C86.8856 59.9143 88.8412 58.9016 92.1123 58.8783C95.3833 58.9016 97.3389 59.9143 98.34 60.2519C99.3411 60.5895 100.249 60.217 100.552 59.7979C100.889 59.3556 101.006 58.6222 100.528 57.9936Z" fill="#6D4C41"/>
<path d="M78.7488 79.2261C78.6208 79.1795 78.5044 79.1446 78.3763 79.133H70.1348C70.0067 79.1446 69.8787 79.1795 69.7623 79.2261C69.0173 79.5287 68.6098 80.297 68.9591 81.1235C69.3083 81.95 70.9496 84.2548 74.2555 84.2548C77.5615 84.2548 79.2028 81.9384 79.552 81.1235C79.9129 80.297 79.4938 79.5287 78.7488 79.2261Z" fill="#E59600"/>
<path d="M84.185 88.6317C80.4833 90.8318 68.3188 90.8318 64.6171 88.6317C62.4869 87.3629 60.3101 89.3069 61.1948 91.2392C62.0678 93.1367 68.6913 97.5485 74.4301 97.5485C80.169 97.5485 86.711 93.1367 87.5841 91.2392C88.4687 89.3069 86.3152 87.3629 84.185 88.6317Z" fill="#795548"/>
<path d="M109.224 61.6138C109.142 60.2286 109.084 60.0889 107.257 59.5069C105.825 59.0529 98.0024 58.4127 92.1122 58.7386C91.6932 58.7619 91.2857 58.7852 90.9016 58.8201C85.5586 59.2741 79.1446 61.4276 74.3254 61.544C72.2766 61.5905 63.8372 59.3788 57.8655 58.9132C57.4814 58.8899 57.0972 58.855 56.7015 58.8434C50.7997 58.5407 42.9422 59.2275 41.5104 59.6931C39.6829 60.2868 39.6247 60.4265 39.5548 61.8117C39.4733 63.1969 39.7061 64.3727 40.7887 64.7335C42.2671 65.2224 42.2787 67.0616 43.2682 72.3465C44.1645 77.1657 46.318 80.9722 55.5723 81.6357C55.9681 81.659 56.3406 81.6823 56.7131 81.6823C64.8965 81.7987 67.7135 76.4091 68.6447 74.6164C70.3792 71.2872 69.8321 66.7008 74.4185 66.6891C78.9932 66.6775 78.5625 71.1824 80.3203 74.5C81.2632 76.281 84.0104 81.6939 92.1239 81.5775C92.5197 81.5775 92.9271 81.5542 93.3461 81.5193C102.589 80.7976 104.731 76.9795 105.592 72.1602C106.547 66.8637 106.558 65.0129 108.025 64.524C109.084 64.1748 109.317 62.9991 109.224 61.6138ZM62.0212 79.3541C60.6011 80.0177 58.7036 80.3552 56.7015 80.3552C52.5225 80.3436 47.8895 78.8769 46.2133 75.9202C43.8386 71.7062 43.2216 63.1853 46.2482 61.4043C47.5752 60.6244 52.0568 60.0889 56.6898 60.2868C61.4974 60.4963 66.4679 61.4974 68.2606 63.8488C71.229 67.7252 66.5145 77.2355 62.0212 79.3541ZM102.647 75.7455C100.982 78.7255 96.3145 80.2272 92.1122 80.2388C90.1333 80.2505 88.2592 79.9245 86.8623 79.2727C82.3574 77.1773 77.5847 67.7019 80.5182 63.8023C82.2992 61.4276 87.293 60.4032 92.1122 60.1704C96.7336 59.9492 101.204 60.4614 102.519 61.2297C105.557 62.9991 104.998 71.52 102.647 75.7455Z" fill="#212121" stroke="#212121" stroke-width="0.55" stroke-miterlimit="10"/>
<path opacity="0.67" d="M118.35 141.562L119.014 139.001L119.025 138.942L121.272 130.096L113.24 127.791L72.5909 116.115C72.5327 116.104 72.4862 116.104 72.4396 116.08C70.6219 115.602 68.6891 115.854 67.0551 116.783C65.4211 117.712 64.2159 119.244 63.6975 121.051L57.0042 144.344H117.559L118.35 141.562Z" fill="url(#paint11_linear_36_454)"/>
<path d="M123.1 130.235C123.437 129.06 122.762 127.837 121.586 127.511L76.5488 114.59C74.7134 114.066 72.7448 114.291 71.0753 115.216C69.4057 116.141 68.1715 117.691 67.6437 119.526L60.5312 144.344H119.06L123.1 130.235Z" fill="#424242"/>
<path d="M122.32 140.048C122.727 138.628 121.877 137.138 120.434 136.731L72.102 122.878C66.8288 121.365 65.9092 125.614 64.4309 130.771L60.5312 144.344H121.086L122.32 140.048Z" fill="url(#paint12_linear_36_454)"/>
<path d="M73.6386 114.357C72.248 114.538 70.9405 115.121 69.8773 116.035C68.8141 116.949 68.0417 118.155 67.6553 119.503L60.5312 144.344H65.0362L73.6386 114.357Z" fill="url(#paint13_linear_36_454)"/>
<path opacity="0.2" d="M74.8842 118.234C75.0937 118.234 75.3265 118.257 75.571 118.315L118.932 130.771L118.571 132.028C104.847 128.198 78.6557 120.83 73.2428 119.037C73.5222 118.653 74.0693 118.234 74.8842 118.234ZM74.8842 114.357C69.6226 114.357 66.9918 120.841 71.2523 122.436C75.9435 124.182 121.225 136.777 121.225 136.777L123.065 130.352C123.426 129.118 122.844 127.861 121.773 127.558L76.5604 114.567C75.9784 114.427 75.4196 114.357 74.8842 114.357Z" fill="#424242"/>
<path d="M120.329 130.515L73.9994 117.221C72.7422 116.86 71.3686 117.757 70.9496 119.212L70.8797 119.468C70.4607 120.923 71.1475 122.413 72.4047 122.774L118.734 136.067C118.734 136.067 118.339 135.101 118.816 133.39C119.293 131.667 120.329 130.515 120.329 130.515Z" fill="url(#paint14_linear_36_454)"/>
<path d="M121.144 29.2296C118.304 24.9342 111.936 19.1721 106.221 18.788C105.301 13.2936 99.4226 8.63733 93.7303 6.83304C78.3297 1.95561 68.3072 7.42671 62.9292 10.3601C61.8117 10.9655 54.5829 14.9815 49.5308 12.1062C46.3646 10.3019 46.4228 5.42452 46.4228 5.42452C46.4228 5.42452 36.505 9.20772 39.8924 19.7425C36.4817 19.8822 32.0117 21.3256 29.6486 26.1099C26.8316 31.8138 27.8327 36.5748 28.6476 38.8564C25.7141 41.3475 22.024 46.644 24.5501 53.5236C26.4591 58.7037 34.0604 61.09 34.0604 61.09C33.525 70.4141 35.2594 76.153 36.179 78.4694C36.342 78.8769 36.9124 78.8419 37.0172 78.4229C38.1696 73.8016 42.1041 57.7026 41.7083 54.8972C41.7083 54.8972 54.9204 52.278 67.5156 43.0005C70.0765 41.1147 72.8586 39.5083 75.8154 38.3326C91.635 32.035 94.9409 42.7793 94.9409 42.7793C94.9409 42.7793 105.906 40.6723 109.212 55.8983C110.458 61.6022 111.296 70.7401 112.006 77.1308C112.053 77.5848 112.67 77.6779 112.844 77.2588C113.95 74.7212 116.162 69.6924 116.686 64.5589C116.872 62.7546 121.738 60.3683 123.833 52.6156C126.638 42.2787 123.204 32.3376 121.144 29.2296Z" fill="#543930"/>
<path d="M116.662 64.6055C116.849 62.8012 121.714 60.4149 123.81 52.6622C124.031 51.8357 124.217 50.9976 124.392 50.1595C126.091 40.7422 123.041 32.0932 121.144 29.2296C118.513 25.2602 112.879 20.0452 107.536 18.9742C107.07 18.916 106.616 18.8578 106.186 18.8345C106.186 18.8345 106.57 21.3373 105.557 23.3278C104.253 25.912 101.588 26.529 101.588 26.529C115.522 40.4745 114.532 52.1384 116.662 64.6055Z" fill="url(#paint15_radial_36_454)"/>
<path d="M66.2934 8.60242C65.0129 9.21938 63.8954 9.83633 62.9176 10.3602C61.8001 10.9655 54.5713 14.9815 49.5192 12.1063C46.4112 10.3369 46.4112 5.61078 46.4112 5.44781C44.9794 7.27539 40.6491 20.3245 53.3141 21.1976C58.7735 21.5701 62.1377 16.8091 64.1399 12.7814C64.8616 11.3147 65.9907 9.17281 66.2934 8.60242Z" fill="url(#paint16_radial_36_454)"/>
<path d="M92.1472 6.36742C100.668 8.67227 104.824 13.0142 106.209 18.7996C106.617 20.4991 107.105 36.3537 76.8398 18.334C65.5833 11.629 68.6564 7.43836 69.9718 6.9611C75.117 5.0986 82.6019 3.78321 92.1472 6.36742Z" fill="url(#paint17_radial_36_454)"/>
<path d="M46.3762 5.44781C46.3646 5.45945 46.3413 5.45945 46.3064 5.48273H46.2947C45.2122 5.93672 36.7029 9.88289 39.8808 19.7425L48.9372 21.1976C40.9168 13.0724 46.4111 5.42453 46.4111 5.42453C46.4111 5.42453 46.3879 5.43617 46.3762 5.44781Z" fill="url(#paint18_radial_36_454)"/>
<path d="M45.4799 20.6388L39.8808 19.7425C39.6596 19.7425 38.9146 19.8123 38.5072 19.8705C35.3526 20.3129 31.6392 21.9426 29.6254 26.1099C27.4602 30.6032 27.5184 34.4562 28.1121 37.0288C28.2867 37.8902 28.6359 38.868 28.6359 38.868C28.6359 38.868 31.4064 36.2373 38.0066 36.0626L45.4799 20.6388Z" fill="url(#paint19_radial_36_454)"/>
<path d="M28.3682 39.0892C25.6094 41.5337 21.896 46.9932 24.6316 53.768C26.6919 58.8783 34.0488 61.09 34.0488 61.09C34.0488 61.1133 35.5155 61.5556 36.2722 61.5556L37.995 36.0627C34.4679 36.0627 31.0805 37.122 28.892 38.6469C28.9269 38.6818 28.3566 39.0543 28.3682 39.0892Z" fill="url(#paint20_radial_36_454)"/>
<defs>
<linearGradient id="paint0_linear_36_454" x1="74.4988" y1="13.2645" x2="74.4988" y2="103.007" gradientUnits="userSpaceOnUse">
<stop stop-color="#26A69A"/>
<stop offset="1" stop-color="#00796B"/>
</linearGradient>
<linearGradient id="paint1_linear_36_454" x1="74.4988" y1="9.94691" x2="74.4988" y2="105.669" gradientUnits="userSpaceOnUse">
<stop stop-color="#8D6E63"/>
<stop offset="0.779" stop-color="#795548"/>
</linearGradient>
<radialGradient id="paint2_radial_36_454" cx="0" cy="0" r="1" gradientUnits="userSpaceOnUse" gradientTransform="translate(91.4755 95.6283) scale(27.2612 13.3907)">
<stop offset="0.728" stop-color="#6D4C41" stop-opacity="0"/>
<stop offset="1" stop-color="#6D4C41"/>
</radialGradient>
<radialGradient id="paint3_radial_36_454" cx="0" cy="0" r="1" gradientUnits="userSpaceOnUse" gradientTransform="translate(118.328 91.5715) rotate(154.924) scale(8.05607 5.97645)">
<stop offset="0.663" stop-color="#6D4C41"/>
<stop offset="1" stop-color="#6D4C41" stop-opacity="0"/>
</radialGradient>
<radialGradient id="paint4_radial_36_454" cx="0" cy="0" r="1" gradientUnits="userSpaceOnUse" gradientTransform="translate(97.4492 68.7861) rotate(-94.2783) scale(35.3859 29.4918)">
<stop offset="0.725" stop-color="#6D4C41" stop-opacity="0"/>
<stop offset="1" stop-color="#6D4C41"/>
</radialGradient>
<radialGradient id="paint5_radial_36_454" cx="0" cy="0" r="1" gradientUnits="userSpaceOnUse" gradientTransform="translate(51.5778 68.7854) rotate(-85.7217) scale(35.3859 29.4918)">
<stop offset="0.725" stop-color="#6D4C41" stop-opacity="0"/>
<stop offset="1" stop-color="#6D4C41"/>
</radialGradient>
<radialGradient id="paint6_radial_36_454" cx="0" cy="0" r="1" gradientUnits="userSpaceOnUse" gradientTransform="translate(57.5501 95.6283) rotate(180) scale(27.2612 13.3907)">
<stop offset="0.728" stop-color="#6D4C41" stop-opacity="0"/>
<stop offset="1" stop-color="#6D4C41"/>
</radialGradient>
<radialGradient id="paint7_radial_36_454" cx="0" cy="0" r="1" gradientUnits="userSpaceOnUse" gradientTransform="translate(30.6997 91.5723) rotate(25.0761) scale(8.05607 5.97645)">
<stop offset="0.663" stop-color="#6D4C41"/>
<stop offset="1" stop-color="#6D4C41" stop-opacity="0"/>
</radialGradient>
<linearGradient id="paint8_linear_36_454" x1="74.5" y1="118.841" x2="74.5" y2="136.268" gradientUnits="userSpaceOnUse">
<stop stop-color="#E1F5FE"/>
<stop offset="1" stop-color="#81D4FA"/>
</linearGradient>
<linearGradient id="paint9_linear_36_454" x1="33.8894" y1="115.061" x2="33.8894" y2="143.215" gradientUnits="userSpaceOnUse">
<stop stop-color="#FFA000"/>
<stop offset="0.341" stop-color="#FF9300"/>
<stop offset="0.972" stop-color="#FF7100"/>
<stop offset="1" stop-color="#FF6F00"/>
</linearGradient>
<linearGradient id="paint10_linear_36_454" x1="115.112" y1="114.736" x2="115.112" y2="143.404" gradientUnits="userSpaceOnUse">
<stop stop-color="#FFA000"/>
<stop offset="0.341" stop-color="#FF9300"/>
<stop offset="0.972" stop-color="#FF7100"/>
<stop offset="1" stop-color="#FF6F00"/>
</linearGradient>
<linearGradient id="paint11_linear_36_454" x1="92.6233" y1="122.561" x2="89.57" y2="135.418" gradientUnits="userSpaceOnUse">
<stop offset="0.002" stop-color="#212121" stop-opacity="0.2"/>
<stop offset="1" stop-color="#212121" stop-opacity="0.6"/>
</linearGradient>
<linearGradient id="paint12_linear_36_454" x1="95.2669" y1="129.097" x2="92.9725" y2="136.794" gradientUnits="userSpaceOnUse">
<stop stop-color="#EF5350"/>
<stop offset="1" stop-color="#E53935"/>
</linearGradient>
<linearGradient id="paint13_linear_36_454" x1="67.9871" y1="126.751" x2="70.1557" y2="119.935" gradientUnits="userSpaceOnUse">
<stop stop-color="#212121"/>
<stop offset="1" stop-color="#424242"/>
</linearGradient>
<linearGradient id="paint14_linear_36_454" x1="70.9189" y1="119.337" x2="119.529" y2="133.286" gradientUnits="userSpaceOnUse">
<stop offset="0.01" stop-color="#BDBDBD"/>
<stop offset="0.987" stop-color="#F8F8F7"/>
</linearGradient>
<radialGradient id="paint15_radial_36_454" cx="0" cy="0" r="1" gradientUnits="userSpaceOnUse" gradientTransform="translate(95.4728 50.1145) rotate(72.0851) scale(41.4784 30.776)">
<stop offset="0.699" stop-color="#6D4C41" stop-opacity="0"/>
<stop offset="1" stop-color="#6D4C41"/>
</radialGradient>
<radialGradient id="paint16_radial_36_454" cx="0" cy="0" r="1" gradientUnits="userSpaceOnUse" gradientTransform="translate(55.0381 4.89084) rotate(28.2026) scale(10.8761 12.8958)">
<stop offset="0.58" stop-color="#6D4C41"/>
<stop offset="1" stop-color="#6D4C41" stop-opacity="0"/>
</radialGradient>
<radialGradient id="paint17_radial_36_454" cx="0" cy="0" r="1" gradientUnits="userSpaceOnUse" gradientTransform="translate(79.3445 24.6424) rotate(-157.19) scale(34.0134 19.1157)">
<stop offset="0.699" stop-color="#6D4C41" stop-opacity="0"/>
<stop offset="1" stop-color="#6D4C41"/>
</radialGradient>
<radialGradient id="paint18_radial_36_454" cx="0" cy="0" r="1" gradientUnits="userSpaceOnUse" gradientTransform="translate(50.6705 14.8125) scale(9.98184 12.2108)">
<stop offset="0.702" stop-color="#6D4C41" stop-opacity="0"/>
<stop offset="1" stop-color="#6D4C41"/>
</radialGradient>
<radialGradient id="paint19_radial_36_454" cx="0" cy="0" r="1" gradientUnits="userSpaceOnUse" gradientTransform="translate(49.2954 32.4323) rotate(-164.942) scale(18.7223 17.5207)">
<stop offset="0.66" stop-color="#6D4C41" stop-opacity="0"/>
<stop offset="1" stop-color="#6D4C41"/>
</radialGradient>
<radialGradient id="paint20_radial_36_454" cx="0" cy="0" r="1" gradientUnits="userSpaceOnUse" gradientTransform="translate(44.8586 50.5097) rotate(7.83355) scale(19.657 27.6213)">
<stop offset="0.598" stop-color="#6D4C41" stop-opacity="0"/>
<stop offset="1" stop-color="#6D4C41"/>
</radialGradient>
</defs>
</svg>
