<svg width="149" height="149" viewBox="0 0 149 149" fill="none" xmlns="http://www.w3.org/2000/svg">
<path d="M16.5556 143.481V132.169C16.5556 118.372 28.2058 107.335 43.535 107.335C61.93 121.132 80.3251 121.132 98.7202 107.335C114.049 107.335 126.926 118.372 126.926 132.169V143.481" fill="#92D3F5"/>
<path d="M41.0824 85.537C22.6873 85.537 25.7532 41.3889 34.9507 30.3518C53.3458 8.27775 90.1359 8.27775 108.531 30.3518C117.728 41.3889 120.794 85.537 102.399 85.537" fill="#F1B31C"/>
<path d="M38.0166 68.9815C38.0166 91.0556 52.7327 101.817 71.1277 101.817C89.5228 101.817 105.465 91.0556 105.465 68.9815C105.465 52.7019 98.7203 43.5963 98.7203 43.5963C92.5886 43.5963 80.9384 33.9389 80.9384 33.9389C80.9384 33.9389 55.7985 49.1149 41.6956 49.1149C41.6956 49.1149 38.0166 52.426 38.0166 68.9815Z" fill="#FCEA2B"/>
<path d="M41.0823 85.537C22.6872 85.537 25.7531 41.3889 34.9506 30.3518C53.3457 8.27775 90.1358 8.27775 108.531 30.3518C117.728 41.3889 120.794 85.537 102.399 85.537M16.5556 140.722V132.168C16.5556 118.372 28.2058 107.335 43.535 107.335C61.93 121.131 80.3251 121.131 98.7202 107.335C114.049 107.335 126.926 118.372 126.926 132.168V140.722" stroke="black" stroke-width="2" stroke-linecap="round" stroke-linejoin="round"/>
<path d="M90.1362 66.2223C90.1362 69.2574 87.377 71.7408 84.0046 71.7408C80.6321 71.7408 77.8729 69.2574 77.8729 66.2223C77.8729 63.1871 80.6321 60.7037 84.0046 60.7037C87.377 60.7037 90.1362 63.1871 90.1362 66.2223ZM65.6095 66.2223C65.6095 69.2574 62.8502 71.7408 59.4778 71.7408C56.1054 71.7408 53.3461 69.2574 53.3461 66.2223C53.3461 63.1871 56.1054 60.7037 59.4778 60.7037C62.8502 60.7037 65.6095 63.1871 65.6095 66.2223Z" fill="black"/>
<path d="M38.0166 68.9815C38.0166 91.0556 52.7327 101.817 71.1277 101.817C89.5228 101.817 105.465 91.0556 105.465 68.9815C105.465 52.7019 98.7203 43.5963 98.7203 43.5963C92.5886 43.5963 80.9384 33.9389 80.9384 33.9389C80.9384 33.9389 55.7985 49.1149 41.6956 49.1149C41.6956 49.1149 38.0166 52.426 38.0166 68.9815Z" stroke="black" stroke-width="2" stroke-linejoin="round"/>
<path d="M61.9297 83.3296C67.7548 86.0888 74.4997 86.0888 80.3248 83.3296" stroke="black" stroke-width="2" stroke-linecap="round" stroke-linejoin="round"/>
</svg>
