<svg xmlns="http://www.w3.org/2000/svg" xmlns:xlink="http://www.w3.org/1999/xlink" width="199.832" height="66.676"><defs><linearGradient id="a" x1=".5" y1=".106" x2=".5" y2=".905" gradientUnits="objectBoundingBox"><stop offset="0" stop-color="#ffc708"/><stop offset="1" stop-color="#f05731"/></linearGradient><linearGradient id="c" x1=".608" y1=".049" x2=".407" y2=".744" gradientUnits="objectBoundingBox"><stop offset="0" stop-color="#f80000"/><stop offset="1" stop-color="#ee3984"/></linearGradient><linearGradient id="d" x1="-.048" y1=".643" x2="1.126" y2=".139" gradientUnits="objectBoundingBox"><stop offset="0" stop-color="#ee3984"/><stop offset="1" stop-color="#7800da"/></linearGradient><linearGradient id="e" x1=".463" y1=".25" x2=".69" y2=".89" gradientUnits="objectBoundingBox"><stop offset="0" stop-color="red"/><stop offset=".999" stop-color="#ee3984"/><stop offset="1" stop-color="#ee3984"/></linearGradient><linearGradient id="f" y1=".5" x2="1" y2=".5" gradientUnits="objectBoundingBox"><stop offset="0" stop-color="#ffc708"/><stop offset="1" stop-color="#fa3b00"/></linearGradient><linearGradient id="g" y1=".5" x2="1" y2=".5" gradientUnits="objectBoundingBox"><stop offset="0" stop-color="red"/><stop offset="1" stop-color="#ee3984"/></linearGradient><linearGradient id="b" x1=".899" y1=".403" x2="-.015" y2=".718" gradientUnits="objectBoundingBox"><stop offset="0" stop-color="#ee3984"/><stop offset="1" stop-color="#7800da"/></linearGradient><linearGradient id="h" x1="0" y1=".5" x2="1" y2=".5" xlink:href="#a"/><linearGradient id="i" x1=".317" y1=".79" x2=".698" y2=".158" xlink:href="#b"/><clipPath id="j"/><clipPath id="k"><path data-name="Path 6151" d="M318.531 83.709l.011-.011-.011.011m0 0zm-.005.006l.005-.006z" transform="translate(-318.525 -83.698)" fill="#0f37ff"/></clipPath><clipPath id="l"/></defs><g data-name="Group 2113"><g data-name="Group 2112"><path data-name="Path 6335" d="M64.774 84.163c0-4.763 3.1-7.621 7.621-7.621v-8.1a3.814 3.814 0 10-7.621 0z" transform="translate(16229 7331) translate(-16229 -7331) translate(-64.774 -64.475)" fill="url(#a)"/><path data-name="Path 6336" d="M78.27 144.249a15.767 15.767 0 005.239-.873c-8.018 1.349-11.114-4.128-11.114-10.32v-25.4h9.288c2.144 0 3.573-1.27 3.573-3.1s-1.429-3.1-3.573-3.1H72.4c-4.525 0-7.621 2.858-7.621 7.621v21.831c-.005 8.737 4.996 13.341 13.491 13.341z" transform="translate(16229 7331) translate(-16229 -7331) translate(-64.774 -89.393)" fill="url(#c)"/><path data-name="Path 6337" d="M99.247 202.394a12.9 12.9 0 007.224-6.668L102.9 189.3c-1.588 4.763-4.366 7.3-8.177 7.3-3.969 0-6.589-2.3-6.589-7.541v3.017c-.001 6.19 3.095 11.667 11.113 10.318z" transform="translate(16229 7331) translate(-16229 -7331) translate(-80.512 -148.411)" fill="url(#d)"/><path data-name="Path 6338" d="M157.285 141.123c-18.1 2.7-23.816-6.986-23.816-19.45 0-9.05 5.557-15.242 13.575-15.242a17.658 17.658 0 017.621 1.667 6.289 6.289 0 002.7.635 3 3 0 003.175-3.175 3.589 3.589 0 00-2.382-3.175A25.222 25.222 0 00147.044 100c-12.543 0-21.2 8.891-21.2 21.831 0 12.7 8.336 21.514 21.752 21.514a20.265 20.265 0 009.689-2.222z" transform="translate(16229 7331) translate(-16229 -7331) translate(-105.922 -88.41)" fill="url(#e)"/><path data-name="Path 6339" d="M125.848 121.832c0-12.94 8.653-21.831 21.2-21.831a25.222 25.222 0 0111.114 2.381 3.589 3.589 0 012.382 3.175 3 3 0 01-3.175 3.175 6.289 6.289 0 01-2.7-.635 17.7 17.7 0 00-7.621-1.667c-11.039.001-21.2 6.987-21.2 15.402z" transform="translate(16229 7331) translate(-16229 -7331) translate(-105.922 -88.41)" fill="url(#f)"/><path data-name="Path 6340" d="M263.406 107.787a3.6 3.6 0 00-1.111 2.62c0 2.62 2.461 6.509 8.177 10.479l6.51 4.525c4.763 3.334 6.668 6.51 6.668 11.273a11.3 11.3 0 01-3.573 8.415 3.768 3.768 0 001.27-2.937c0-2.779-2.778-7.145-8.732-11.273l-5.954-4.128c-5-3.493-6.986-6.748-6.986-11.193a9.991 9.991 0 012.541-6.748 13.757 13.757 0 011.19-1.033z" transform="translate(16229 7331) translate(-16229 -7331) translate(-196.087 -93.656)" fill="url(#g)"/><path data-name="Path 6341" d="M255.295 191.137c0 1.27.635 2.3 2.3 3.1a23.616 23.616 0 009.367 2.064 14.859 14.859 0 0010.161-3.493 3.768 3.768 0 001.27-2.937c0-2.779-2.778-7.145-8.732-11.273 2.7 1.905 3.81 3.493 3.81 5.8 0 3.414-2.7 5.716-6.589 5.716-3.731 0-6.907-1.905-8.653-1.905a2.792 2.792 0 00-2.934 2.928z" transform="translate(16229 7331) translate(-16229 -7331) translate(-193.136 -141.362)" fill="url(#b)"/><path data-name="Path 6342" d="M275.882 115.64c-2.54-1.826-3.652-3.493-3.652-5.478 0-2.54 2.064-4.128 5-4.128 3.731 0 5.478 1.746 7.7 1.746a2.792 2.792 0 002.937-2.937c0-1.27-.635-2.3-2.3-3.1a19.291 19.291 0 00-8.574-1.743 13.379 13.379 0 00-8.177 2.54 3.6 3.6 0 00-1.111 2.62c-.005 2.621 2.461 6.511 8.177 10.48z" transform="translate(16229 7331) translate(-16229 -7331) translate(-201.497 -88.41)" fill="url(#h)"/><path data-name="Path 6343" d="M149.207 129.05c0 12.463 5.716 22.149 23.816 19.45 5.795-3.017 9.923-9.129 12.781-18.5l1.667-5.478a10.83 10.83 0 01-2.223-6.827 9.991 9.991 0 012.541-6.748c-2.382 2.54-4.366 6.272-5.954 11.511l-1.826 6.033c-3.255 10.638-8.415 15.718-16.433 15.718-8.812.004-14.369-6.109-14.369-15.159z" transform="translate(16229 7331) translate(-16229 -7331) translate(-121.66 -95.787)" fill="url(#i)"/></g><g data-name="Group 2111"><g data-name="Group 2034"><path data-name="Path 6129" d="M53.093 0l-6.562 13.338 6.773 13.335 7.365-14.966h6.667L56.691 33.338l6.773 13.335 17.207-34.968h6.671L66.851 53.338l6.773 13.335L99.87 13.338 106.432.003z" transform="translate(16229 7331) translate(-16163.712 -7330.997) translate(28.112)"/><path data-name="Path 6130" d="M66.673 66.673l-5.945-11.7H19.093L46.142.003H32.808L0 66.673z" transform="translate(16229 7331) translate(-16163.712 -7330.997) translate(28.112)"/><path data-name="Path 6131" d="M32.088 44.519v-3.795h.969v2.944h1.528v.851z" transform="translate(16229 7331) translate(-16163.712 -7330.997) translate(28.112)"/><path data-name="Path 6132" d="M36.702 44.594a1.959 1.959 0 01-1.995-1.923 2.184 2.184 0 01.148-.81 1.77 1.77 0 01.246-.426 1.993 1.993 0 111.6 3.159zm.01-3.087a1.053 1.053 0 00-1.036 1.108 1.036 1.036 0 101.036-1.108z" transform="translate(16229 7331) translate(-16163.712 -7330.997) translate(28.112)"/><path data-name="Path 6133" d="M41.507 44.522l-1.456-2.19.026 2.19h-.928v-3.795h.836l1.475 2.274v-2.274h.889v3.795z" transform="translate(16229 7331) translate(-16163.712 -7330.997) translate(28.112)"/><path data-name="Path 6134" d="M44.124 44.521h-1.328v-3.795h1.261a1.826 1.826 0 011.677.708 2 2 0 01.349 1.18 1.743 1.743 0 01-1.959 1.907zm.061-2.944h-.42v2.092h.415c.661 0 .928-.426.928-1.041s-.276-1.05-.923-1.05z" transform="translate(16229 7331) translate(-16163.712 -7330.997) translate(28.112)"/><path data-name="Path 6135" d="M48.359 44.592a1.959 1.959 0 01-1.995-1.923 2.184 2.184 0 01.149-.81 1.772 1.772 0 01.246-.426 1.993 1.993 0 111.6 3.159zm.01-3.087a1.053 1.053 0 00-1.036 1.108 1.036 1.036 0 101.036-1.108z" transform="translate(16229 7331) translate(-16163.712 -7330.997) translate(28.112)"/><path data-name="Path 6136" d="M30.708 46.504h1.251v3.795h-.892l.027-2.453-.715 2.453h-.817l-.742-2.453.027 2.453h-.892v-3.795h1.353l.65 2.3" transform="translate(16229 7331) translate(-16163.712 -7330.997) translate(28.112)"/><path data-name="Path 6137" d="M35.123 50.307l-.185-.549H33.62l-.2.549h-1.041l1.523-3.795h.764l1.508 3.795zm-.839-2.415l-.4 1.1h.795z" transform="translate(16229 7331) translate(-16163.712 -7330.997) translate(28.112)"/><path data-name="Path 6138" d="M38.457 50.307l-.877-1.226h-.01v1.226h-.927v-3.795h1.2a1.822 1.822 0 011.169.272 1.314 1.314 0 01.467 1.036 1.145 1.145 0 01-.944 1.2l1.031 1.292zm-.533-2.944h-.354v.974l.355.008c.364 0 .62-.193.62-.544-.002-.374-.288-.439-.621-.439z" transform="translate(16229 7331) translate(-16163.712 -7330.997) translate(28.112)"/><path data-name="Path 6139" d="M45.358 47.338v2.969h-.969V47.34h-1.043v-.842h3.018v.842z" transform="translate(16229 7331) translate(-16163.712 -7330.997) translate(28.112)"/><path data-name="Path 6140" d="M49.071 50.307v-1.518h-1.265v1.518h-.988v-3.795h.988v1.426h1.265v-1.426h.988v3.795z" transform="translate(16229 7331) translate(-16163.712 -7330.997) translate(28.112)"/><path data-name="Path 6141" d="M52.462 50.378a1.959 1.959 0 01-1.995-1.923 2.181 2.181 0 01.149-.81 1.77 1.77 0 01.246-.426 1.993 1.993 0 111.6 3.159zm.01-3.087a1.053 1.053 0 00-1.036 1.108 1.036 1.036 0 101.036-1.108z" transform="translate(16229 7331) translate(-16163.712 -7330.997) translate(28.112)"/><path data-name="Path 6142" d="M42.645 50.307l-.185-.549h-1.318l-.2.549h-1.041l1.523-3.795h.764l1.508 3.795zm-.838-2.415l-.4 1.1h.795z" transform="translate(16229 7331) translate(-16163.712 -7330.997) translate(28.112)"/><path data-name="Path 6143" d="M57.209 50.338l-1.456-2.19.026 2.19h-.926v-3.8h.836l1.475 2.274v-2.274h.889v3.8z" transform="translate(16229 7331) translate(-16163.712 -7330.997) translate(28.112)"/><path data-name="Path 6144" d="M53.087 44.52l-1.456-2.19.026 2.19h-.928v-3.795h.836l1.475 2.274v-2.275h.889v3.795z" transform="translate(16229 7331) translate(-16163.712 -7330.997) translate(28.112)"/><g data-name="Group 2032"><path data-name="Path 6145" d="M42.963 38.69a1.968 1.968 0 111.66-3.044 1.609 1.609 0 01.256.62h-1.014a.982.982 0 00-.917-.661 1.045 1.045 0 00-1.015 1.107 1.064 1.064 0 001.02 1.127 1 1 0 00.912-.64h1.014a1.943 1.943 0 01-1.916 1.491z" transform="translate(16229 7331) translate(-16163.712 -7330.997) translate(28.112)"/></g><g data-name="Group 2033"><path data-name="Path 6146" d="M46.85 38.69c-.891 0-1.6-.395-1.6-1.2v-.123h1.124a.467.467 0 00.461.518.4.4 0 00.431-.364c0-.246-.239-.328-.472-.415-.131-.051-.263-.1-.395-.143-.574-.205-1.083-.492-1.083-1.086 0-.707.8-1.117 1.549-1.117a1.716 1.716 0 011.2.43 1.015 1.015 0 01.293.748h-1.119c-.036-.21-.12-.369-.407-.369-.2 0-.389.118-.389.3a.248.248 0 00.042.159 2.926 2.926 0 00.873.42c.586.231 1.035.492 1.035 1.086 0 .787-.67 1.156-1.543 1.156z" transform="translate(16229 7331) translate(-16163.712 -7330.997) translate(28.112)"/></g><path data-name="Path 6147" d="M39.695 35.632v3.059h-1v-3.059h-1.074v-.868h3.111v.868z" transform="translate(16229 7331) translate(-16163.712 -7330.997) translate(28.112)"/></g><g data-name="Group 2036"><g data-name="Group 2035" clip-path="url(#j)" transform="translate(16229 7331) translate(-16163.712 -7330.997) translate(.478 14.907)"><rect data-name="Rectangle 1179" fill="#0f37ff"/></g></g><g data-name="Group 2038"><path data-name="Path 6150" d="M.006.011L.017 0 .006.011m0 0zM.001.017L.006.011z" fill="#0f37ff" transform="translate(16229 7331) translate(-16163.712 -7330.997) translate(1.474 13.899)"/><g data-name="Group 2037" clip-path="url(#k)" transform="translate(16229 7331) translate(-16163.712 -7330.997) translate(1.474 13.899)"><rect data-name="Rectangle 1180" width=".016" height=".017" fill="#0f37ff"/></g></g><g data-name="Group 2040"><g data-name="Group 2039" clip-path="url(#l)" transform="translate(16229 7331) translate(-16163.712 -7330.997) translate(0 15.285)"><rect data-name="Rectangle 1181" width=".001" height=".001" fill="#0f37ff"/></g></g><g data-name="Group 2042"><g data-name="Group 2041" clip-path="url(#j)" transform="translate(16229 7331) translate(-16163.712 -7330.997) translate(.478 14.907)"><rect data-name="Rectangle 1182" fill="#0f37ff"/></g></g><g data-name="Group 2044"><path data-name="Path 6156" d="M.006.011L.017 0 .006.011m0 0zM.001.017L.006.011z" fill="#0f37ff" transform="translate(16229 7331) translate(-16163.712 -7330.997) translate(1.474 13.899)"/><g data-name="Group 2043" clip-path="url(#k)" transform="translate(16229 7331) translate(-16163.712 -7330.997) translate(1.474 13.899)"><rect data-name="Rectangle 1183" width=".016" height=".017" fill="#0f37ff"/></g></g><g data-name="Group 2046"><g data-name="Group 2045" clip-path="url(#l)" transform="translate(16229 7331) translate(-16163.712 -7330.997) translate(0 15.285)"><rect data-name="Rectangle 1184" width=".001" height=".001" fill="#0f37ff"/></g></g></g></g></svg>